<svg xmlns="http://www.w3.org/2000/svg" xmlns:xlink="http://www.w3.org/1999/xlink" viewBox="0 0 2900 296"><defs><style>.a{fill:none;}.b{fill:#f2f4f7;}.c{clip-path:url(#a);}.d{fill:#f8f7f8;}.e{fill:#eaedf2;}.f{fill:#fff;}</style><clipPath id="a"><rect class="a" x="-156.87" y="-2676.6" width="3627" height="2626"/></clipPath></defs><title>back-00-a2</title><path class="b" d="M2900,.13C2681.19,0,2605.8,40.35,2496.26,243.65l-370.07,39.06c-149.55-176-301.28-239.5-546.43-213.65L881.2,142.75C548.14,177.92,340.35,152.48,209.3,0Z"/><g class="c"><rect class="d" x="-206.87" y="-1232.6" width="2127" height="1405"/><path class="e" d="M-1884.59,2224.45l-271.17-232.85C-2882.11,1367.9-2874.9,1046-2342.67,426.17l632-736c220.37-256.64,262.1-481.59,180-787.66L-1198-1484.9c315,34.89,526.17-44.54,746.54-301.18l627.87-731.19c532.22-619.81,849.34-675.61,1575.69-51.9l276,237c53.27,45.74,62.91,112.89,21.33,161.31l-303.55,353.5c-41.57,48.42-105.26,44.21-158.52-1.53l-227.59-195.43c-247-212.06-339.07-173.37-534.5,54.22L197.42-1228.9C-89.48-894.79-394.91-744.83-812.3-817.2c134.63,401.65,37.42,730.4-249.48,1064.52l-632,736c-195.42,227.58-219.73,324.48,27.23,536.54l222.74,191.28c53.27,45.73,67.06,108,25.48,156.47l-303.54,353.5C-1763.47,2269.56-1831.32,2270.19-1884.59,2224.45Z"/><path class="f" d="M3694.61-978.11,1922-977.37c-219.79-258.66-442.75-352-803.1-314L92.2-1183c-718.48,75.82-1040.18-40.18-1190.94-656.22-6.51-26.62-48.08,2346.56-53.8,2319.09-23.18-111.42,4721.72-134.18,4721.72-134.18S3855.58-1276.95,3694.61-978.11Z"/></g></svg>